<?xml version="1.0" encoding="UTF-8"?>
<svg xmlns="http://www.w3.org/2000/svg" viewBox="0 0 612 133.5">
  <defs>
    <style>
      .cls-1 {
        fill: #173140;
      }

      .cls-2 {
        fill: #469dcc;
      }

      .cls-3 {
        fill: #183241;
      }

      .cls-4 {
        fill: #183240;
      }

      .cls-5 {
        fill: #183140;
      }
    </style>
  </defs>
  <g id="Layer_1">
    <path class="cls-2" d="M67,124.8c1.5-1.4,3.1-2.8,4.5-4.3,4.7-5.2,8.3-11.3,10-18.1,2.3-9,.4-17.2-5.3-24.5-2.8-3.6-5.7-7.2-7.9-11.2-3.2-6-5-12.5-4.6-19.4.5-9.1,3.8-16.9,10.2-23.5,5.4-5.7,12.2-9.7,19.2-13,10.3-4.8,21.2-7.9,32.3-9.2,5.5-.7,11.1-1.1,16.6-1.2,6.5-.2,13.2,0,19.7,0h.9c-3.8,24.6-7.6,49-11.4,73.5-1.9-.5-3.5-1-5.2-1.4-3.3-.9-6.7-1.9-10.1-2.8-.8-.2-1-.5-.9-1.3,1.2-7.1,2.3-14.1,3.4-21.2,1.2-7.8,2.4-15.5,3.6-23.4.3-1.9.6-3.8.9-5.7v-.7h-5.5c-6.7.4-13.4,1.2-19.9,2.8-10.3,2.4-19.9,6.2-28.7,12.4-4.8,3.4-7.8,8-8.6,13.8-.6,4,.3,7.9,2.1,11.6,1.6,3.4,3.9,6.3,6.3,9.2,5.1,6.3,8.6,13.6,9.8,21.8.8,5.5.6,11.1-.6,16.5,0,.3,0,.5-.2.9,6.7-2.3,13.5-4,20.5-4.9,1.5,5.4,3.1,10.8,4.6,16.2-1.8.3-3.5.5-5.2.8-10.7,1.8-20.9,5.5-30.2,11.5-1.8,1.2-3.7,2.3-5.5,3.4-.3.2-.8.2-1,0-4.5-2.9-9-5.6-13.8-8.5v-.1Z"/>
    <path class="cls-5" d="M32.6,100.1c9.8.3,19.1,1.9,28.2,4.6,3.2,1,6.3,2.2,9.9,3.4-1.4,2-2.6,4-4.1,5.7-2.3,2.5-4.7,4.9-7.2,7.4-.2.2-.8.3-1.1.2-8.3-2.7-16.7-4.3-25.4-4.6-4,0-8.1.2-12,.3h-2C11.7,78.3,6,39.2,0,0h18.9c15.8.2,31.3,2.5,46,8.6,3,1.2,6,2.7,9.1,4-2.2,2.1-4.4,4-6.3,6.1s-3.6,4.4-5.5,6.8c-6.5-3-13.5-5.1-20.6-6.5-7.2-1.4-14.4-2.1-22.1-2.2,4.4,27.8,8.7,55.5,13.1,83.2v.1Z"/>
    <path class="cls-1" d="M596.5,37.8v-4.3h15.5v47.9c0,3.8-.3,7.6-1.5,11.3-1.7,5-5.3,8.6-9.9,11.1-6.4,3.7-13.4,4.8-20.6,4.4-5.2-.3-10.1-1.6-14.5-4.6-4.5-3.2-7.5-7.5-8.6-13v-.6h17c.3,0,.9,0,1,.4,2,3.6,5.3,4.8,9.3,4.7,5.4,0,9.9-3.1,11.5-7.9s.8-4.8.7-7.2c-1.4,1.3-2.7,2.7-4.3,3.9-3.4,2.4-7.4,3.1-11.4,2.8-9.4-.6-16.5-4.8-21.3-13.1-3.2-5.6-4-11.8-3.3-18.1.6-5.8,2.6-11.3,6.7-15.6,7.3-7.6,15.9-10.1,26.1-7.3,3.1,1.1,5.5,2.8,7.6,5.2h0ZM571.4,59.2v1.8c.4,1.8.3,2,1,3.8,3.5,8.7,15.5,10.4,21.2,3,2.5-3.3,3.1-7.2,2.5-11.2-1.2-7.2-7.6-11.6-14.7-10.2-6.1,1.3-10.1,6.4-10.1,12.8h.1Z"/>
    <path class="cls-1" d="M264.7,38.8v-5.2h15.4v51.7h-15.4v-5.2c-.8,1-1.5,1.8-2.3,2.6-2.9,2.6-6.4,3.9-10.3,4.3-7.7.7-14.6-1.1-20.3-6.4-4.5-4.2-7.1-9.6-8-15.5-1.1-6.7-.4-13.3,2.7-19.4,5.4-10.8,18.3-16.3,29.5-12.8,3.2,1,6,2.8,8.1,5.5.2,0,.4.1.6.4ZM251.8,72.5c8.7.2,12.9-7.1,12.9-13.2s-5.4-13.1-12.9-13.1c-8.4,0-12.9,6.7-12.9,13.3s4.2,13.2,12.9,13h0Z"/>
    <path class="cls-5" d="M385.2,31.8c6.3,0,13,2.1,18.3,7.4,4.5,4.3,7.3,9.7,8.2,15.8,1.3,9.4-1.2,17.5-7.9,24.4-4.4,4.5-10.1,6.8-16.4,7.5-5.3.5-10.6,0-15.5-2.3-8.3-3.8-13.1-10.5-15-19.3-2.5-11.7,2.8-24.1,13.1-29.8,4.4-2.7,9.1-3.7,15.2-3.7h0ZM396.6,59.4c-.1-.9-.2-1.8-.3-2.7-1.5-8.6-11.1-13-18.4-8.6-4.6,2.8-6.8,8.2-5.8,13.9,1.2,6.9,8,11.6,14.8,10.1,5.6-1.2,9.7-6.6,9.7-12.7h0Z"/>
    <path class="cls-5" d="M496.3,31.8c5.8,0,12.5,2.1,17.8,7.4,4.5,4.3,7.3,9.7,8.1,15.8,1.3,9.3-1.2,17.5-7.9,24.3-4.5,4.6-10.2,6.9-16.5,7.5-5.3.5-10.5,0-15.4-2.3-8.1-3.7-12.8-10.1-15-18.5-2.9-11.7,2.3-24.3,12.4-30.3,4.4-2.7,9.3-3.9,16.5-3.9h0ZM507.1,59.4c-.1-.9-.2-1.9-.3-2.8-1.5-8.6-11.1-12.9-18.3-8.5-4.6,2.8-6.8,8.2-5.8,13.9,1.2,7.1,8.1,11.7,14.9,10.1,5.5-1.3,9.4-6.6,9.5-12.7h0Z"/>
    <path class="cls-5" d="M333.8,33.5c-.7,2-1.4,3.8-2.1,5.7-7.9,20.8-15.6,41.6-23.5,62.4-.3.7-.6,1-1.3,1h-15.5c.2-.4.3-.7.4-1,2.5-6,4.9-12,7.5-18,.2-.5.2-1.1,0-1.6-6.1-15.8-12.3-31.5-18.4-47.3-.1-.3-.2-.6-.4-1h15.6c.8,0,1.1.3,1.3,1,3.2,9.3,6.4,18.5,9.7,27.7.1.3.3.7.5,1.2,1.1-3.3,2.1-6.4,3.1-9.6,2.1-6.4,4.2-12.9,6.3-19.3.2-.8.6-1,1.4-1h14.3c.3-.2.6-.2,1.1-.2Z"/>
    <path class="cls-5" d="M220.3,48h-15.2c-.7-3.5-4.6-5-7.7-3.1-2,1.3-2.1,3.5-.3,4.9,2.2,1.6,4.8,2.3,7.4,3.1,2.7.8,5.4,1.6,8,2.7,10.2,4.1,10.8,13.2,8,20.1-2,5-5.9,8.2-11,9.9-7.3,2.4-14.4,2-21.2-1.7-5.2-2.9-7.9-7.6-8.7-13.4v-.6h15.3c.4,2.4,1.7,4,4.1,4.5,1.6.4,3.2.2,4.7-.5,1.3-.6,2.2-1.6,2.3-3.1.1-1.6-.7-2.7-2-3.3-2.3-1-4.6-2-7.1-2.9-2.7-1-5.4-1.9-8.1-3.1-3.7-1.7-6.9-4.1-8.2-8.3-1.7-5.8-.2-11,3.9-15.3,4.8-5,11-6.5,17.8-6,3.9.3,7.7,1.4,11,3.7,4.5,2.9,6.4,7.3,7,12.4Z"/>
    <path class="cls-4" d="M167.4,86.3c-5.1,3.1-10.2,6.1-15.2,9.1,5.2,5.2,10.4,10.4,15.4,15.4-3.6,3.6-7.3,7.3-10.9,10.9-5-5-10.2-10.2-15.4-15.4-3,5-6,10.1-9.2,15.2-4.7-16.5-9.4-32.7-14.1-49.3,16.6,4.7,32.9,9.4,49.4,14.1h0Z"/>
    <path class="cls-1" d="M335.7,85.3V16.3h15.4v69h-15.4Z"/>
    <path class="cls-5" d="M432.5,85.3h-15.5v-51.7h14.5v5.2c2.9-5.2,7.5-7.2,13.2-7.1v15.6c-1.4,0-2.7,0-4,.3-5.3.7-8.1,3.8-8.1,9.3v27.2c-.1.4-.1.8-.1,1.2Z"/>
    <path class="cls-1" d="M527.6,33.5h14.5v5.2c2.8-5.2,7.5-7.2,13.2-7.2v15.5c-1.7.2-3.3.2-4.9.5-4.6,1-7.1,3.8-7.2,8.6v28.9h-15.4v-51.5h-.2Z"/>
    <path class="cls-3" d="M444.8,77.3c0-4.4,3.5-8,8-7.9,4.4,0,8,3.6,7.9,8.1,0,4.4-3.6,8-8.1,7.9-4.3,0-7.8-3.6-7.8-8.1Z"/>
  </g>
  <g id="Layer_2">
    <g>
      <path d="M330.16,94.36v8.38c0,3.17,1.41,4.51,3.3,4.51,2.1,0,3.44-1.39,3.44-4.51v-8.38h1.85v8.25c0,4.35-2.29,6.13-5.35,6.13-2.9,0-5.08-1.66-5.08-6.05v-8.34h1.85Z"/>
      <path d="M354.42,108.51v-14.15h1.99l4.54,7.16c1.05,1.66,1.87,3.15,2.54,4.6l.04-.02c-.17-1.89-.21-3.61-.21-5.82v-5.92h1.72v14.15h-1.85l-4.49-7.18c-.99-1.57-1.93-3.19-2.65-4.72l-.06.02c.11,1.79.15,3.49.15,5.84v6.05h-1.72Z"/>
      <path d="M382.56,94.36v14.15h-1.83v-14.15h1.83Z"/>
      <path d="M401.35,108.51l-4.62-14.15h1.97l2.2,6.97c.61,1.91,1.13,3.63,1.51,5.29h.04c.4-1.64.99-3.42,1.62-5.27l2.39-6.99h1.95l-5.06,14.15h-2.02Z"/>
      <path d="M429.79,101.88h-5.5v5.1h6.13v1.53h-7.96v-14.15h7.64v1.53h-5.82v4.47h5.5v1.51Z"/>
      <path d="M445.28,94.55c.92-.19,2.25-.29,3.51-.29,1.95,0,3.21.36,4.09,1.16.71.63,1.11,1.6,1.11,2.69,0,1.87-1.18,3.11-2.67,3.61v.06c1.09.38,1.74,1.38,2.08,2.86.46,1.97.8,3.34,1.09,3.88h-1.89c-.23-.4-.55-1.62-.95-3.38-.42-1.95-1.18-2.69-2.83-2.75h-1.72v6.13h-1.83v-13.96ZM447.11,100.99h1.87c1.95,0,3.19-1.07,3.19-2.69,0-1.83-1.32-2.62-3.25-2.65-.88,0-1.51.08-1.81.17v5.17Z"/>
      <path d="M468.82,106.28c.82.5,2.02.92,3.28.92,1.87,0,2.96-.99,2.96-2.41,0-1.32-.76-2.08-2.67-2.81-2.31-.82-3.74-2.02-3.74-4.01,0-2.21,1.83-3.84,4.58-3.84,1.45,0,2.5.34,3.13.69l-.5,1.49c-.46-.25-1.41-.67-2.69-.67-1.93,0-2.67,1.15-2.67,2.12,0,1.32.86,1.97,2.81,2.73,2.39.92,3.61,2.08,3.61,4.16,0,2.18-1.62,4.07-4.96,4.07-1.36,0-2.86-.4-3.61-.9l.46-1.53Z"/>
      <path d="M493.75,94.36v14.15h-1.83v-14.15h1.83Z"/>
      <path d="M512.12,95.91h-4.3v-1.55h10.48v1.55h-4.33v12.6h-1.85v-12.6Z"/>
      <path d="M536.11,108.51v-6l-4.47-8.15h2.08l1.99,3.91c.55,1.07.97,1.93,1.41,2.92h.04c.4-.92.88-1.85,1.43-2.92l2.04-3.91h2.08l-4.75,8.12v6.03h-1.85Z"/>
    </g>
  </g>
</svg>